<?xml version="1.0" encoding="UTF-8"?>
<svg width="1164px" height="238px" viewBox="0 0 1164 238" version="1.1" xmlns="http://www.w3.org/2000/svg" xmlns:xlink="http://www.w3.org/1999/xlink">
    <!-- Generator: Sketch 56.3 (81716) - https://sketch.com -->
    <title>Group</title>
    <desc>Created with Sketch.</desc>
    <defs>
        <path d="M739.486737,115.572817 C739.672801,67.7615174 737.03959,-9.09494702e-13 761.396724,-9.09494702e-13 C786.006877,-9.09494702e-13 815.758517,35.4011186 833.448977,62.107488 C852.86434,52.6440123 880.972137,41.6965493 896.610478,47.8475813 C904.088094,50.7887535 907.722839,54.9834089 910.403838,59.9196156 C913.084838,64.8558222 914.111617,73.2478375 911.430617,79.8059117 C907.647848,89.0590569 900.049405,93.6083704 891.85295,99.3833558 C880.566718,106.979533 869.16014,113.498183 831.085164,128.079533 C804.682206,138.19092 770.935356,146.146673 751.005729,149.187227 C699.672933,157.018789 686,137.406598 686,129.703247 C686,127.761683 691.397245,128.709047 695.015293,128.875256 C700.719743,129.137311 710.066005,127.982394 718.114905,124.703133 C725.880579,121.539264 732.981388,118.494575 739.486737,115.572817 Z" id="path-1"></path>
        <filter x="-1.5%" y="-2.3%" width="106.2%" height="106.6%" filterUnits="objectBoundingBox" id="filter-2">
            <feOffset dx="7" dy="3" in="SourceAlpha" result="shadowOffsetOuter1"></feOffset>
            <feColorMatrix values="0 0 0 0 0   0 0 0 0 0   0 0 0 0 0  0 0 0 1 0" type="matrix" in="shadowOffsetOuter1"></feColorMatrix>
        </filter>
        <path d="M72.7804907,113.970134 C72.7804907,148.941022 90.9033171,201.867367 90.9658436,206.755795 L41.736235,214.182408 C41.786514,210.402698 44.6495649,139.35223 41.736235,118.38752 C23.7306448,116.696359 6.49295454,127.36624 0,125.251066 L0,88.4940308 C8.85038747,86.5198678 99.6648005,80.6079057 120.469415,77.9857257 C121.473742,98.649154 119.528917,113.547589 114.634939,122.681031 C99.9500762,118.38752 77.512942,114.659035 72.7804907,113.970134 Z M242.647553,201.867392 L206.7116,219.594709 C181.904332,200.833306 185.233921,176.454052 171.353037,158.153782 L171.728194,156.273627 C173.854095,155.834922 176.60522,154.769511 179.981652,153.077363 C183.358083,151.385215 186.171734,149.442407 188.422688,147.248882 C190.736169,144.930012 192.486885,142.485835 193.674888,139.916277 C194.862892,137.346718 196.714247,132.881382 196.714247,128.870365 C196.714247,125.047363 195.644473,121.395783 193.674888,118.38752 C191.705303,115.379256 190.532937,112.842041 186.507335,110.491847 C182.481732,108.141653 182.951661,108.878049 179.981652,108.564688 C177.011642,108.251327 163.97495,110.413507 163.099579,110.444843 C162.224208,110.476179 161.630215,110.491847 161.317582,110.491847 C156.257846,172.113935 175.93308,203.750458 175.995607,209.140263 L130.367116,214.182408 C120.469415,184.381948 130.554696,105.540858 130.367116,88.3060153 C132.180385,88.3060153 177.543096,81.0419544 184.389748,81.6060038 C191.236401,82.1700532 199.282676,82.759547 205.347747,84.8277281 C214.038932,87.7106472 233.777626,102.046816 231.615588,122.579678 C229.453549,143.11254 211.062055,157.871759 206.7116,157.871759 L206.7116,158.435806 C213.214357,166.645858 239.177349,191.479534 242.647553,201.867392 Z M376.470219,206.755795 L328.122815,217.002641 C314.705085,209.140263 319.64565,187.719268 315.89406,178.882494 L285.307027,179.587552 C281.367857,188.54967 285.307027,213.853381 280.700605,217.002641 L241.319849,207.225834 C243.008064,203.465505 255.001305,188.957123 266.349866,162.85417 C277.698427,136.751218 283.056032,111.306701 293.372906,87.3659377 L325.167476,87.3659377 C333.271457,116.320328 365.004478,129.951454 376.470219,206.755795 Z M311.866005,158.435806 C309.239891,152.043246 307.816457,133.382737 308.285403,116.320328 L307.816457,116.320328 C305.25287,122.399527 302.426521,130.954158 298.799984,139.916277 C295.173447,148.878395 291.966078,154.894821 289.715123,160.033938 L289.808913,160.127945 L311.866005,158.435806 Z M516.338385,81.6060038 C498.515489,127.36624 512.183324,212.20823 512.183324,215.216494 L489.673894,215.874548 C450.414283,195.239844 424.052667,133.210407 421.113922,129.763438 L420.644975,129.951454 C415.754254,167.648566 415.754254,188.424282 422.663399,217.848711 L392.22682,214.182408 C392.289346,211.048801 360.094217,128.870365 363.088636,94.5222785 L418.008128,75 C434.760264,127.36624 468.500961,138.20088 483.390012,167.836582 L483.765169,167.648566 C483.765169,158.999809 473.508919,131.784605 483.202433,88.3060153 L516.338385,81.6060038 Z M633.015196,184.475956 C630.092124,201.703639 612.984343,210.704121 601.922091,213.665366 C590.85984,216.62661 566.842942,217.982868 529.269584,212.074089 C527.208173,203.1835 525.401753,174.605141 525.401753,162.85417 C546.369521,157.541753 552.932818,188.612297 579.711615,188.142258 C583.763278,188.071141 586.417541,185.431711 588.011967,183.582882 C589.606393,181.734053 590.403594,179.462222 590.403594,176.767319 C590.403594,173.759056 589.528236,171.236539 587.777494,169.199694 C586.026751,167.162849 583.025524,165.047696 578.773722,162.85417 C576.147608,161.538055 572.599282,159.877268 568.128637,157.871759 C563.657992,155.86625 559.828301,153.860771 556.639449,151.855262 C550.511851,148.157605 546.11943,143.989969 543.462053,139.35223 C540.804677,134.714491 539.476008,129.575451 539.476008,123.934957 C539.476008,119.109201 540.460786,114.76922 542.430371,110.914882 C544.399956,107.060545 546.931752,103.151421 550.183131,100.393847 C555.122725,95.8814515 558.617817,92.6773762 570.660948,87.1779222 C582.704079,81.6784681 615.533262,77.9857257 645.20585,91.082182 L639.15644,142.066704 C605.562288,131.784605 611.057755,115.286243 586.481052,111.760952 C580.225502,110.961886 572.020901,116.16364 570.426475,117.91846 C568.832049,119.673281 568.034848,121.804102 568.034848,124.310988 C568.034848,126.629858 568.910206,128.807683 570.660948,130.844528 C572.41169,132.881373 582.279096,136.94524 588.902965,138.318145 C593.172332,139.35223 609.699745,143.953214 613.388809,146.084067 C627.2452,151.855262 635.938267,167.248272 633.015196,184.475956 Z M749.188865,215.216494 C723.165756,214.793459 711.26795,224.846414 642.741927,222.07906 C636.995867,201.867392 653.398735,91.9410003 653.336209,88.3060153 C686.684164,89.1207492 703.358142,90.3570492 703.358142,92.0149153 C703.358142,94.5017143 678.186952,165.329219 684.286675,188.518289 C687.100368,188.518289 701.722202,182.125762 735.468762,188.518289 L749.188865,215.216494 Z M878.528207,155.081393 C879.807063,163.918123 883.047679,181.798228 870.786683,200.070008 C858.525687,218.341787 848.46487,221.489539 840.774109,224.27845 C833.083349,227.067361 807.102776,228.660583 787.642475,224.27845 C768.182174,219.896318 755.216781,207.163162 750.284539,193.12467 C745.352297,179.086177 743.467719,161.663458 743.467719,151.197208 C743.467719,141.483024 745.046489,132.630715 748.204078,124.640015 C751.361666,116.649316 756.160504,109.457794 762.600734,103.065234 C768.478226,97.1740514 775.418564,92.6617239 783.421957,89.5281162 C791.42535,86.3945085 800.116404,84.8277281 809.49538,84.8277281 C818.686777,84.8277281 827.205886,86.2848338 835.052962,89.199089 C842.900039,92.1133442 849.793483,96.3906546 855.733501,102.031149 C862.423838,108.361036 867.441514,115.740572 870.786683,124.169976 C874.131851,132.599381 877.249351,146.244664 878.528207,155.081393 Z M843.91605,152.231293 C843.91605,145.901406 842.868747,139.618616 840.774109,133.382737 C838.679471,127.146858 835.41251,121.99215 830.973128,117.91846 C828.221962,115.28623 825.064421,113.21808 821.50041,111.713948 C817.936399,110.209816 813.966025,109.457762 809.58917,109.457762 C805.274841,109.457762 801.304467,110.225484 797.677929,111.760952 C794.051392,113.29642 790.706274,115.568251 787.642475,118.576515 C783.765832,122.462188 780.748973,127.334875 778.591808,133.194722 C776.434644,139.054568 775.356078,145.086672 775.356078,151.291216 C775.356078,158.122481 776.434644,164.389602 778.591808,170.092768 C780.748973,175.795934 783.890883,180.590282 788.017632,184.475956 C790.768799,187.108186 793.988865,189.207672 797.677929,190.774476 C801.366993,192.34128 805.36863,193.12467 809.682959,193.12467 C813.872235,193.12467 817.795714,192.372615 821.453515,190.868483 C825.111316,189.364352 828.409539,187.202195 831.348285,184.381948 C835.162402,180.746963 838.210524,176.077957 840.492741,170.374791 C842.774959,164.671625 843.91605,158.623853 843.91605,152.231293 Z M1147.64095,155.081393 C1148.91981,163.918123 1152.16042,181.798228 1139.89942,200.070008 C1127.63843,218.341787 1117.57761,221.489539 1109.88685,224.27845 C1102.19609,227.067361 1076.21552,228.660583 1056.75522,224.27845 C1037.29492,219.896318 1024.32952,207.163162 1019.39728,193.12467 C1014.46504,179.086177 1012.58046,161.663458 1012.58046,151.197208 C1012.58046,141.483024 1014.15923,132.630715 1017.31682,124.640015 C1020.47441,116.649316 1021.73859,111.572936 1029.61494,102.877218 C1037.49129,94.1815004 1043.32967,88.3902306 1061.54238,78.8748824 C1087.73792,66.0903164 1118.90623,96.3906546 1124.84624,102.031149 C1131.53658,108.361036 1136.55426,115.740572 1139.89942,124.169976 C1143.24459,132.599381 1146.36209,146.244664 1147.64095,155.081393 Z M1113.02879,152.231293 C1113.02879,145.901406 1111.98149,139.618616 1109.88685,133.382737 C1107.79221,127.146858 1104.52525,121.99215 1100.08587,117.91846 C1097.3347,115.28623 1084.20519,102.877218 1075.50233,104.780876 C1066.79946,106.684533 1059.81902,112.353382 1056.75522,115.361645 C1052.87857,119.247319 1049.86172,127.334875 1047.70455,133.194722 C1045.54739,139.054568 1044.46882,145.086672 1044.46882,151.291216 C1044.46882,158.122481 1045.54739,164.389602 1047.70455,170.092768 C1049.86172,175.795934 1053.00363,180.590282 1057.13037,184.475956 C1059.88154,187.108186 1063.10161,189.207672 1066.79067,190.774476 C1070.47974,192.34128 1074.48137,193.12467 1078.7957,193.12467 C1082.98498,193.12467 1086.90846,192.372615 1090.56626,190.868483 C1094.22406,189.364352 1097.52228,187.202195 1100.46103,184.381948 C1104.27514,180.746963 1107.32327,176.077957 1109.60548,170.374791 C1111.8877,164.671625 1113.02879,158.623853 1113.02879,152.231293 Z M997.131606,167.836582 C999.836944,169.165437 994.717508,212.074089 989.7584,219.594709 C946.136842,209.140263 923.168044,202.024106 914.726966,195.004825 C908.099156,189.61502 902.97206,183.300895 899.345522,176.062261 C895.718985,168.823627 893.905743,160.504023 893.905743,151.1032 C893.905743,142.329099 895.703353,134.416858 899.298627,127.36624 C902.893902,120.315623 908.224209,107.358282 914.726966,102.031149 C939.350563,79.0952131 966.818776,74.2068095 997.131606,87.3659377 C997.131606,96.4631471 1005.10076,132.923715 997.131606,138.568587 C962.75829,123.181508 941.245697,121.421555 932.593826,133.288729 C929.267237,138.568587 928.165213,142.407873 928.165213,149.176466 C928.165213,156.007731 938.783919,167.272535 950.86613,170.092768 C962.94834,172.913001 994.135236,166.364773 997.131606,167.836582 Z" id="path-3"></path>
        <filter x="-0.6%" y="-5.1%" width="102.0%" height="114.9%" filterUnits="objectBoundingBox" id="filter-4">
            <feMorphology radius="2.5" operator="dilate" in="SourceAlpha" result="shadowSpreadOuter1"></feMorphology>
            <feOffset dx="9" dy="8" in="shadowSpreadOuter1" result="shadowOffsetOuter1"></feOffset>
            <feComposite in="shadowOffsetOuter1" in2="SourceAlpha" operator="out" result="shadowOffsetOuter1"></feComposite>
            <feColorMatrix values="0 0 0 0 0   0 0 0 0 0   0 0 0 0 0  0 0 0 1 0" type="matrix" in="shadowOffsetOuter1"></feColorMatrix>
        </filter>
        <linearGradient x1="60.2163971%" y1="19.0331146%" x2="52.8831039%" y2="47.6052723%" id="linearGradient-5">
            <stop stop-color="#FFE977" offset="0%"></stop>
            <stop stop-color="#FFBE03" offset="100%"></stop>
        </linearGradient>
        <linearGradient x1="65.6774448%" y1="43.3214927%" x2="70.8113495%" y2="50%" id="linearGradient-6">
            <stop stop-color="#FFE977" offset="0%"></stop>
            <stop stop-color="#FFBE03" offset="100%"></stop>
        </linearGradient>
    </defs>
    <g id="instullation" stroke="none" stroke-width="1" fill="none" fill-rule="evenodd">
        <g id="Artboard-Copy-4" transform="translate(-32.000000, -49.000000)">
            <g id="Group" transform="translate(35.000000, 49.000000)">
                <g id="Combined-Shape">
                    <use fill="black" fill-opacity="1" filter="url(#filter-2)" xlink:href="#path-1"></use>
                    <use fill="#FFBE03" fill-rule="evenodd" xlink:href="#path-1"></use>
                </g>
                <g id="TRANSLOCO" fill-rule="nonzero">
                    <use fill="black" fill-opacity="1" filter="url(#filter-4)" xlink:href="#path-3"></use>
                    <use stroke="#FFFFFF" stroke-width="5" fill="#317EEB" xlink:href="#path-3"></use>
                </g>
                <g id="Group-21" transform="translate(686.000000, 0.000000)">
                    <path d="M147.435303,62.5375977 C129.79649,35.744481 99.9539799,0 75.2851562,0 C50.8315189,0 53.6228374,68.6343338 53.4042969,116.577307 C67.5117187,108.253982 77.1494914,109.442947 100.105086,93.0454102 C129.383894,72.1311035 148.867432,64.361084 147.435303,62.5375977 Z" id="Oval" fill="#FFBE03"></path>
                    <path d="M147.435303,62.5375977 C129.79649,35.744481 99.9539799,0 75.2851562,0 C50.8315189,0 53.6228374,68.6343338 53.4042969,116.577307 C67.5117187,108.253982 77.1494914,109.442947 100.105086,93.0454102 C129.383894,72.1311035 148.867432,64.361084 147.435303,62.5375977 Z" id="Oval" fill="url(#linearGradient-5)"></path>
                    <path d="M95.2407227,26.7016602 C92.3962563,22.8717802 82.9673005,25.7899064 72.215332,28.59375 C62.5355842,31.1179854 62.1456448,33.0392021 63.0087891,30.9038086 C63.3465134,30.0682884 67.3234798,25.8508566 76.4077148,21.7421875 C82.5489162,18.9646102 87.4569489,18.7975406 87.6793646,18.3007812 C87.9571777,17.6802932 80.6701238,17.8097623 73.9306641,19.9008789 C66.11308,22.3265154 64.769092,24.0675004 65.0930568,23.4386217 C65.2753152,23.0848226 70.7553998,18.6605488 75.7875977,15.8837891 C79.5384605,13.8140682 83.2407227,13.2542076 83.2407227,12.7885742 C83.2407227,12.2107777 79.1281226,12.5256382 75.215332,14.0224609 C71.7444831,15.3502206 67.5117188,17.6279543 67.5117188,17.3549805 C67.5117188,14.0224609 71.1918945,8.31396484 75.215332,6.60058594 C71.9551255,4.50927734 79.5049302,3.91503906 73.8520508,3.91503906 C55.7041016,3.91503906 55.3450054,67.8076737 55.1264648,115.749512 C57.9148923,114.105486 60.5229492,114.129883 61.8579102,112.754395 C71.9026969,111.93457 140.45758,69.5459841 140.292726,66.2875977 C140.139798,63.2624621 121.600592,62.702527 101.228027,68.7436523 C81.7804281,74.5104956 60.4552345,86.8954712 60.3718438,84.0904442 C60.2927407,81.4296433 110.115331,50.874684 110.199707,48.1469727 C110.324668,44.1172417 102.18107,42.7773604 85.206543,46.1501536 C69.402753,49.2903244 60.4580585,53.514034 61.8661113,49.0053711 C62.020827,48.5099628 62.4286893,41.0594729 75.7875977,34.8217773 C87.4091003,29.3953313 95.46801,27.0076871 95.2407227,26.7016602 Z" id="Oval" fill-opacity="0.340772509" fill="#A8872B"></path>
                    <path d="M205.54834,99.5751953 C213.732666,93.7890625 221.319865,89.2309674 225.097037,79.9599609 C227.774069,73.3892277 226.74881,64.9810133 224.071777,60.0352783 C221.394745,55.0895433 217.765379,50.886791 210.298828,47.9399414 C186.171387,38.4174805 132.318265,69.7949726 126.687012,73.3920898 C114.163086,81.3920898 94.9337249,99.2435473 32.0673828,124.943848 C24.0303934,128.229438 14.697961,129.386584 9.00195312,129.124023 C5.3892586,128.957494 0,128.008301 0,129.953613 C0,136.758857 8.31759589,152.960803 45.9628906,151.291475 C46.1078528,151.285047 49.5479423,150.786628 49.6689453,150.748291 C56.1240244,148.703131 79.6995759,142.581558 89.2458121,140.094203 C91.4725789,139.514 92.9359994,139.131537 93.2407227,139.044678 C92.730957,140.538818 92.3984375,142.254639 92.2744141,143.543701 C96.2200114,142.943649 102.244135,141.926115 107.785156,140.164307 C119.012743,136.594413 131.956608,130.788071 147.5093,124.943848 C146.483248,122.969139 142.63208,119.097534 140.141418,117.346741 C147.125793,112.90686 163.782471,101.850586 169.173828,98.3920898 C170.635254,99.0302734 179.229736,109.485352 181.785156,113.029297 C195.673584,106.246826 197.428172,105.059123 205.54834,99.5751953 Z" id="Oval-Copy" fill="url(#linearGradient-6)"></path>
                    <path d="M212.647461,51.5161133 C221.6875,54.5566406 226.964699,71.6048625 226.397451,67.550748 C225.9992,64.7044483 225.176006,62.0753071 224.071777,60.0352783 C221.394745,55.0895433 217.765379,50.886791 210.298828,47.9399414 C194.676387,41.7741784 166.087356,52.6860338 146.783818,62.253415 C136.785156,66.2875977 126.550904,72.1343125 124.522949,73.3920898 C93.3764656,92.7097459 87.3544922,97.6035156 53.2738613,115.725877 C47.7340203,118.671686 40.2273904,121.542339 32.0673828,124.943848 C24.1135085,128.25943 14.697961,129.386584 9.00195312,129.124023 C5.3892586,128.957494 0,128.008301 0,129.953613 C0,131.446328 7.38525391,138.801545 11.456543,141.429963 C15.527832,144.058381 26.7775956,151.291475 44.6005936,148.226074 C48.0030294,147.640885 64.7622216,136.988172 66.264721,133.964111 C67.2056665,132.070283 29.5864264,145.198721 29.9208984,143.082031 C30.1475936,141.647402 81.8706055,126.439453 80.0678711,122.953613 C78.2651367,119.467773 46.760023,125.069517 48.1772461,122.953613 C50.1630859,119.98877 54.902971,118.518956 58.7099609,116.689941 C74.4620528,109.12207 139.005741,68.4195578 165.369629,58.2886537 C203.388264,43.6791569 208.652832,50.2475586 212.647461,51.5161133 Z" id="Oval-Copy" fill-opacity="0.340772509" fill="#A8872B"></path>
                    <path d="M53.401578,84.4863281 C68.7119364,70.0937819 81.3700692,60.2851882 91.3759766,55.0605469 C101.381884,49.8359056 115.34803,45.7424811 133.274414,42.7802734 L139.838867,51.421875 C121.947099,54.5995632 107.540884,59.1057481 96.6202226,64.9404297 C85.6995611,70.7751113 71.2933463,81.6628066 53.401578,97.6035156 L53.401578,84.4863281 Z" id="Path-5" fill="#DE4B4C"></path>
                    <path d="M53.401578,84.4863281 C55.8196356,82.2331945 57.6141804,80.57618 58.7852123,79.5152847 C71.7041175,67.8114149 75.5113106,78.5287804 61.171228,90.8109862 C59.4962849,92.2455662 56.9064015,94.5097427 53.401578,97.6035156 L53.401578,84.4863281 Z" id="Path-5" fill="#B83E3F"></path>
                    <path d="M53.401578,100.486328 C73.4528218,83.5605788 88.4813973,72.4853835 98.4873047,67.2607422 C108.493212,62.0361009 122.659228,57.3380214 140.985352,53.1665039 L146.808594,61.7070313 C128.491625,65.8899277 113.87281,70.8987168 102.952148,76.7333984 C92.031487,82.5680801 75.5146302,94.8581191 53.401578,113.603516 L53.401578,100.486328 Z" id="Path-5" fill="#0DB864"></path>
                    <path d="M53.401578,100.486328 C57.3504221,97.1773482 60.2551414,94.7619082 62.1157358,93.240008 C77.8638466,80.3586128 85.4150174,87.7211415 72.7271278,97.7360556 C68.8067481,100.830523 62.3648982,106.119677 53.401578,113.603516 L53.401578,100.486328 Z" id="Path-5" fill="#0A9853"></path>
                    <polygon id="Triangle" fill="#0A9853" points="24.5288086 135.371582 31.6542969 140.520996 21.456543 143.082031"></polygon>
                    <polygon id="Triangle" fill="#0A9853" points="39.4291992 129.953613 46.9365234 134.685059 37.8842773 137.974609"></polygon>
                    <polygon id="Triangle" fill="#0A9853" points="54.4291992 122.953613 61.8579102 126.98877 53.401578 131.023926"></polygon>
                    <polygon id="Triangle" fill="#0A9853" points="69.0507812 115.186035 76.8579102 118.98877 68.215332 123.749512"></polygon>
                    <polygon id="Triangle" fill="#0DB864" points="83.0507812 107.186035 90.8579102 110.98877 82.215332 115.749512"></polygon>
                    <polygon id="Triangle" fill="#0DB864" points="97.215332 98.3920898 105.240723 102.570801 97.215332 107.186035"></polygon>
                    <polygon id="Triangle" fill="#0DB864" points="111.215332 89.3920898 119.240723 93.5708008 111.215332 98.1860352"></polygon>
                    <polygon id="Triangle" fill="#0DB864" points="125.215332 81.3920898 133.240723 85.5708008 125.215332 90.1860352"></polygon>
                    <polygon id="Triangle" fill="#0DB864" points="140.215332 73.3920898 148.240723 77.5708008 140.215332 82.1860352"></polygon>
                    <polygon id="Triangle" fill="#0DB864" points="155.181152 65.7651367 162.240723 70.5708008 153.883789 74.3100586"></polygon>
                    <polygon id="Triangle" fill="#0DB864" points="170.678711 59.3818359 177.874512 64.8535156 169.25 67.6791992"></polygon>
                    <polygon id="Triangle" fill="#0DB864" points="187.633301 55.3867188 193.26416 61.2490234 184.70752 62.5375977"></polygon>
                    <polygon id="Triangle" fill="#0A9853" points="205.200195 54.7001953 207.930176 62.5375977 199.70752 61.5375977"></polygon>
                    <polygon id="Triangle" fill="#0A9853" points="221.358887 62.5375977 222.200195 70.0375977 215.091309 65.0107422"></polygon>
                    <polygon id="Triangle" fill="#B83E3F" points="17.4042969 143.082031 20.7958984 136.10498 11.456543 137.082031"></polygon>
                    <polygon id="Triangle" fill="#B83E3F" points="34.5375977 139.226807 36.0239258 131.023926 28.1108398 133.964111"></polygon>
                    <polygon id="Triangle" fill="#B83E3F" points="49.5737305 132.26709 51.5317383 123.749512 42.4104004 128.322754"></polygon>
                    <polygon id="Triangle" fill="#B83E3F" points="64.5268555 124.943848 65.5234375 116.689941 57.6297441 120.816895"></polygon>
                    <polygon id="Triangle" fill="#B83E3F" points="78.9443359 116.689941 80.0678711 108.818848 72.5366211 113.603516"></polygon>
                    <polygon id="Triangle" fill="#B83E3F" points="93.2407227 108.818848 93.2407227 100.570801 85.215332 105.186035"></polygon>
                    <polygon id="Triangle" fill="#DE4B4C" points="107.785156 100.570801 107.785156 91.8564453 99.7597656 96.4716797"></polygon>
                    <polygon id="Triangle" fill="#DE4B4C" points="121.952148 91.8564453 121.952148 82.1860352 114.759766 87.4716797"></polygon>
                    <polygon id="Triangle" fill="#DE4B4C" points="136.785156 83.3344727 136.785156 73.8564453 128.759766 78.4716797"></polygon>
                    <polygon id="Triangle" fill="#DE4B4C" points="150.457031 75.5966797 151.781738 66.2875977 143.088867 70.9421387"></polygon>
                    <polygon id="Triangle" fill="#DE4B4C" points="165.171875 68.7436523 167.384277 60.1494141 158.759766 62.9750977"></polygon>
                    <polygon id="Triangle" fill="#B83E3F" points="180.68457 63.5305176 183.316406 56.5400391 174.759766 57.8286133"></polygon>
                    <polygon id="Triangle" fill="#B83E3F" points="195.871094 60.9726562 199.982422 54.5151367 191.433105 54.5151367"></polygon>
                    <polygon id="Triangle" fill="#B83E3F" points="210.298828 55.3867188 217.166504 60.0352783 211.128906 62.5375977"></polygon>
                    <path d="M149.55658,111.255859 C154.163297,108.120241 158.672153,105.325418 162.797607,102.5495 C192.456995,82.5924167 209.774473,72.1185535 218.645752,75.5966797 C228.750977,79.5585938 213.012207,91.8564453 200.725586,98.7201685 C196.154311,101.273838 193.761968,103.024302 179.176514,109.5625 C178.971029,109.654612 176.444727,106.267892 174.286011,103.670288 C172.18652,101.14395 169.845093,98.9962158 169.173828,98.3920898 C164.005137,101.635096 146.654606,113.258868 140.141418,117.346741 C141.684875,118.530029 143.564697,119.916931 146.613403,123.629578 C129.325164,130.649113 109.165216,138.373076 98.7009277,140.277344 C94.3408036,141.070789 96.3341555,140.838552 92.5678711,141.549194 C92.6539917,141.153503 93.1101685,139.375244 93.2407227,139.044678 C111.78772,132.278916 118.607614,129.794142 131.038574,122.796021 C133.34441,121.497929 135.643311,120.139771 138.518616,118.329468 C140.078228,117.34753 147.463425,112.680591 149.55658,111.255859 Z" id="Path-7" fill-opacity="0.340772509" fill="#A8872B"></path>
                    <path d="M149.55658,111.255859 C152.710922,109.108818 156.000098,107.019501 158.920837,105.057922 C160.321357,104.117328 167.797605,99.3088074 169.173828,98.3920898 C182.199891,89.7152814 192.422276,83.2983253 199.982422,79.5830078 C209.880203,74.7188953 215.408625,74.1315499 218.645752,75.5966797 C220.795243,76.5695433 221.536654,77.5617842 221.171265,77.7546387 C220.064293,78.3389047 209.219928,76.2317055 199.982422,81.3920898 C194.766702,84.3057679 187.45637,89.6655674 171.046265,100.128723 C170.562683,99.7249146 169.440125,98.6063232 169.173828,98.3920898 C167.847383,99.2352499 160.230125,104.215604 158.676575,105.260742 C156.085827,107.003645 152.797805,109.033011 148.506409,111.929565 C147.630569,112.520729 146.247854,113.446048 144.604736,114.483704 C142.45418,115.841815 140.086919,117.285591 140.141418,117.346741 C140.317444,117.528931 141.485107,118.363708 141.989502,118.817566 C127.904606,126.720532 113.479728,134.739004 102.664795,137.499268 C97.9269078,138.708505 96.7970292,139.104146 92.9036255,140.164307 C92.9036255,139.856615 93.2407227,139.299988 93.2407227,139.044678 C92.8667588,139.099595 95.4863281,138.181694 99.1524658,136.918274 C104.896544,134.938757 117.790526,130.077039 127.320129,124.869873 C130.592202,123.081947 135.657116,120.128373 140.141418,117.346741 C144.620093,114.568599 148.519561,111.961719 149.55658,111.255859 Z" id="Path-7" fill-opacity="0.340772509" fill="#A8872B"></path>
                    <path d="M174.759766,87.0212402 C197.867302,73.3981934 209.550133,68.027832 215.091309,70.9421387 C220.632484,73.8564453 211.224273,64.0891113 201.522613,68.7436523 C191.820953,73.3981934 174.759766,87.0212402 174.759766,87.0212402 Z" id="Path-10" fill-opacity="0.340772509" fill="#A8872B"></path>
                    <path d="M186.280404,73.4654998 C188.85982,73.4654998 202.403126,64.4465332 207.930176,65.7651367 C213.457225,67.0837402 205.588182,61.4494238 198.6875,65.7651367 C191.786818,70.0808496 184.238482,73.4654998 186.280404,73.4654998 Z" id="Path-10" fill-opacity="0.340772509" fill="#A8872B"></path>
                </g>
                <path d="M819.516506,180.683453 C832.729072,156.277203 847.961982,153.312359 865.215237,171.788922 C875.52025,185.585248 877.8404,197.486941 872.175686,207.494 C874.076077,198.191265 871.201239,192.249859 863.551174,189.669781 C852.076077,185.799664 849.516506,210.861187 838.529202,207.494 C831.204332,205.249208 826.048245,202.291851 823.06094,198.621929 C821.052476,205.894065 816.38581,209.530133 809.06094,209.530133 C798.073635,209.530133 792.373801,200.957867 785.159085,200.957867 C777.711188,204.646134 772.30179,213.622906 783.529202,222.173687 C794.756614,230.724468 742.685452,201.495953 776.516506,180.683453 C799.070543,166.808453 813.403876,166.808453 819.516506,180.683453 Z" id="Path-8" fill="#343435" transform="translate(820.053850, 191.773951) rotate(-10.000000) translate(-820.053850, -191.773951) "></path>
                <path d="M835.546961,197.51785 C834.061352,198.368512 832.961247,198.816598 832.246647,198.862107 C830.110266,198.998163 828.451958,198.796736 827.425366,198.749488 C827.251927,198.741505 828.189426,200.120899 829.515486,201.171632 C831.101537,202.428373 833.13585,203.396336 833.027402,203.423583 C832.939779,203.445597 831.008288,203.030375 829.331919,201.907881 C827.670339,200.795292 824.458467,198.045169 824.44671,198.110812 C824.117453,199.949093 829.134521,203.761752 831.782974,205.516369 C831.141504,205.583797 826.258622,203.456528 822.729314,200.461952 C820.509908,198.578813 819.896151,196.714551 819.896151,196.714551 C819.924572,197.467339 819.869976,198.400636 819.732363,199.514443 C819.306244,201.785958 818.31114,203.246776 816.74705,203.896896 C818.666838,199.248778 818.601981,198.234829 818.617308,196.395699 C817.501419,199.09433 814.982418,202.638889 813.300109,202.844111 C814.574462,201.633409 815.383349,200.808983 815.919198,199.829588 C817.539254,196.86854 818.353461,195.221607 817.742803,195.245893 C815.932962,195.31787 812.77491,198.150518 810.40809,198.62158 C806.655342,199.36848 803.282409,198.847533 805.035735,198.847533 C808.061026,198.847533 811.524289,196.732026 815.425524,192.501012 C814.511717,192.840436 813.400843,193.127023 812.092901,193.360772 C810.78496,193.594521 808.905081,193.842427 806.453263,194.104492 C808.937863,193.265873 810.809696,192.55137 812.068763,191.960983 C813.32783,191.370596 814.241179,190.779104 814.808809,190.186507 C814.680537,189.707262 813.270421,189.484171 810.578459,189.517236 C807.886498,189.550301 803.782241,189.841123 798.265687,190.389703 C803.376036,189.057085 807.477226,188.223353 810.569258,187.888505 C813.661289,187.553657 815.645024,187.627306 816.520463,188.109453 C814.967627,186.469003 812.768428,185.539736 809.922866,185.321653 C807.077304,185.10357 802.972402,185.706792 797.60816,187.131319 C802.356907,185.075531 806.053336,183.843165 808.697447,183.434221 C811.222069,183.043757 816.385835,185.37114 816.353432,185.034341 C808.695318,180.583777 803.045397,180.087928 790.748433,182.946618 C792.35826,181.642014 797.818164,178.784633 802.976059,178.410761 C804.235032,178.319504 806.923927,178.806033 811.042744,179.870347 C807.519812,177.61212 804.630969,176.60199 802.376216,176.839958 C792.539405,177.878142 781.631368,183.855842 781.761534,183.777827 C791.205795,178.117398 798.765559,173.84497 804.114438,173.84497 C809.606965,173.84497 814.44717,177.358153 818.635053,184.384518 C821.157241,180.01278 824.266161,175.849061 827.961815,171.89336 C831.657468,167.937659 836.292393,165.664271 841.86659,165.073196 C836.147105,168.033085 832.548804,170.188516 831.071684,171.539491 C827.901465,174.438977 824.173189,180.231896 824.173189,181.703263 C824.173189,183.32276 829.038692,175.684629 834.386078,172.828707 C836.323651,171.793892 840.611962,170.937943 847.251013,170.260859 C841.210722,171.99061 837.021839,173.658106 834.684363,175.263349 C832.346888,176.868592 829.63106,179.875854 826.536881,184.285134 C828.928421,182.145744 831.165448,180.595134 833.24796,179.633305 C835.330473,178.671475 838.406903,177.768011 842.477251,176.922913 C837.595671,179.168342 834.184716,180.974522 832.244386,182.341455 C830.304055,183.708388 828.233233,185.764034 826.031921,188.508393 C827.401379,187.883882 828.523431,187.462139 829.398079,187.243165 C830.272727,187.024191 831.433756,186.874349 832.881166,186.793639 C831.266824,187.227682 830.042696,187.6306 829.208783,188.002393 C828.374869,188.374186 827.190722,189.044978 825.65634,190.014767 C827.543352,189.69774 828.958918,189.517341 829.903036,189.47357 C830.847154,189.429799 831.886411,189.496387 833.020806,189.673336 C831.85177,189.871269 830.824208,190.202991 829.938118,190.668502 C829.052028,191.134013 827.830717,191.983747 826.274183,193.217703 C829.653647,193.2285 831.984819,193.157558 833.267699,193.004877 C838.236595,192.413508 840.629143,191.577014 840.668417,191.818693 C840.716958,192.117401 837.162407,193.786859 833.5191,194.851507 C830.173228,195.829238 826.704288,196.215071 826.926839,196.332799 C827.484756,196.627936 829.354105,197.970503 831.546549,198.211111 C832.3717,198.301667 833.70517,198.07058 835.546961,197.51785 Z" id="Path-11" fill="#000000" opacity="0.615815662" transform="translate(814.505697, 185.295562) rotate(-14.000000) translate(-814.505697, -185.295562) "></path>
                <path d="M778.463612,221.188915 C774.442745,218.327371 765.563478,211.731192 768.632923,203.765985 C770.523421,198.472378 772.825583,198.472378 774.442745,198 C769.133327,201.806795 770.502256,205.876187 770.502256,207.763466 C772.825583,205.238415 772.421477,205.254037 773.434127,205.254037 C771.518685,209.174401 772.104505,211.746365 772.104505,213.642772 C772.922385,210.4859 773.434127,208.608043 774.967841,207.25067 C775.010899,207.212563 773.08969,212.260602 774.442745,214.183589 C775.100879,213.054015 775.535184,212.634019 775.745659,212.923601 C775.227114,215.836269 777.645228,219.843196 783,224.94438 C783,225.392457 780.352598,223.041479 778.463612,221.188915 Z" id="Path-15" fill="#000000" opacity="0.615815662"></path>
                <path d="M866.484755,189.280929 C862.588759,186.463546 855.485842,180.770993 858.459964,172.928708 C860.291751,167.716794 862.522418,167.716794 864.089358,167.251706 C858.944827,170.999753 860.271243,175.006345 860.271243,176.864499 C862.522418,174.378415 862.130862,174.393796 863.112063,174.393796 C861.256106,178.253659 861.823733,180.785932 861.823733,182.653074 C862.616214,179.544919 863.112063,177.696042 864.598147,176.359616 C864.639867,176.322098 862.778323,181.292234 864.089358,183.185544 C864.727053,182.073402 865.14787,181.659888 865.351809,181.945 C864.516867,184.052773 866.693635,187.61789 871.882111,192.640351 C871.882111,193.081513 868.315077,191.104903 866.484755,189.280929 Z" id="Path-15" fill="#000000" opacity="0.615815662" transform="translate(864.816622, 179.977270) scale(-1, 1) rotate(71.000000) translate(-864.816622, -179.977270) "></path>
            </g>
        </g>
    </g>
</svg>