<svg height="472pt" viewBox="-3 0 471 472" width="472pt" xmlns="http://www.w3.org/2000/svg"><path d="m208.5 192c0 57.4375-46.5625 104-104 104s-104-46.5625-104-104 46.5625-104 104-104 104 46.5625 104 104zm0 0" fill="#4f83d1"/><path d="m464.5 248c0 88.367188-71.632812 160-160 160s-160-71.632812-160-160 71.632812-160 160-160 160 71.632812 160 160zm0 0" fill="#7cb8eb"/><path d="m88.5 384c-13.253906 0-24-10.746094-24-24 0-4.417969-3.582031-8-8-8s-8 3.582031-8 8c0 13.253906-10.746094 24-24 24-4.417969 0-8 3.582031-8 8s3.582031 8 8 8c13.253906 0 24 10.746094 24 24 0 4.417969 3.582031 8 8 8s8-3.582031 8-8c0-13.253906 10.746094-24 24-24 4.417969 0 8-3.582031 8-8s-3.582031-8-8-8zm-32 16.246094c-2.332031-3.136719-5.109375-5.914063-8.246094-8.246094 3.136719-2.332031 5.914063-5.109375 8.246094-8.246094 2.332031 3.136719 5.109375 5.914063 8.246094 8.246094-3.136719 2.332031-5.914063 5.109375-8.246094 8.246094zm0 0" fill="#4f83d1"/><path d="m424.5 32c-13.253906 0-24-10.746094-24-24 0-4.417969-3.582031-8-8-8s-8 3.582031-8 8c0 13.253906-10.746094 24-24 24-4.417969 0-8 3.582031-8 8s3.582031 8 8 8c13.253906 0 24 10.746094 24 24 0 4.417969 3.582031 8 8 8s8-3.582031 8-8c0-13.253906 10.746094-24 24-24 4.417969 0 8-3.582031 8-8s-3.582031-8-8-8zm-32 16.246094c-2.332031-3.136719-5.109375-5.914063-8.246094-8.246094 3.136719-2.332031 5.914063-5.109375 8.246094-8.246094 2.332031 3.136719 5.109375 5.914063 8.246094 8.246094-3.136719 2.332031-5.914063 5.109375-8.246094 8.246094zm0 0" fill="#4f83d1"/><path d="m408.5 248c-13.253906 0-24-10.746094-24-24 0-4.417969-3.582031-8-8-8s-8 3.582031-8 8c0 13.253906-10.746094 24-24 24-4.417969 0-8 3.582031-8 8s3.582031 8 8 8c13.253906 0 24 10.746094 24 24 0 4.417969 3.582031 8 8 8s8-3.582031 8-8c0-13.253906 10.746094-24 24-24 4.417969 0 8-3.582031 8-8s-3.582031-8-8-8zm-32 16.246094c-2.332031-3.136719-5.109375-5.914063-8.246094-8.246094 3.136719-2.332031 5.914063-5.109375 8.246094-8.246094 2.332031 3.136719 5.109375 5.914063 8.246094 8.246094-3.136719 2.332031-5.914063 5.109375-8.246094 8.246094zm0 0" fill="#e6f1fd"/><path d="m312.5 176c-13.253906 0-24-10.746094-24-24 0-4.417969-3.582031-8-8-8s-8 3.582031-8 8c0 13.253906-10.746094 24-24 24-4.417969 0-8 3.582031-8 8s3.582031 8 8 8c13.253906 0 24 10.746094 24 24 0 4.417969 3.582031 8 8 8s8-3.582031 8-8c0-13.253906 10.746094-24 24-24 4.417969 0 8-3.582031 8-8s-3.582031-8-8-8zm-32 16.246094c-2.332031-3.136719-5.109375-5.914063-8.246094-8.246094 3.136719-2.332031 5.914063-5.109375 8.246094-8.246094 2.332031 3.136719 5.109375 5.914063 8.246094 8.246094-3.136719 2.332031-5.914063 5.109375-8.246094 8.246094zm0 0" fill="#e6f1fd"/><path d="m88.5 328h16v16h-16zm0 0" fill="#fcec97"/><path d="m8.5 440h16v16h-16zm0 0" fill="#fcec97"/><path d="m456.5 416c0 8.835938-7.164062 16-16 16s-16-7.164062-16-16 7.164062-16 16-16 16 7.164062 16 16zm0 0" fill="#3e5496"/><path d="m224.5 56c0 13.253906-10.746094 24-24 24s-24-10.746094-24-24 10.746094-24 24-24 24 10.746094 24 24zm0 0" fill="#3e5496"/><path d="m280.5 40h16v16h-16zm0 0" fill="#fcec97"/><path d="m312.5 336h16v16h-16zm0 0" fill="#e6f1fd"/><path d="m360.5 440h16v16h-16zm0 0" fill="#fcec97"/><g fill="#e6f1fd"><path d="m88.5 208h16v16h-16zm0 0"/><path d="m24.5 208.71875c-.167969-1.839844-3.816406-45.535156 22.007812-73.808594 15.078126-15.703125 36.25-24.070312 57.992188-22.910156v16c-17.222656-1.054688-34.054688 5.402344-46.152344 17.703125-21.105468 23.097656-17.917968 61.191406-17.847656 61.578125zm0 0"/><path d="m424.570312 241.054688c-14.847656-111.351563-108.125-113.054688-112.070312-113.054688v-16c1.113281 0 111.199219 1.457031 127.929688 126.945312zm0 0"/></g><path d="m280.5 392c0 44.183594-35.816406 80-80 80s-80-35.816406-80-80 35.816406-80 80-80 80 35.816406 80 80zm0 0" fill="#4f83d1"/></svg>