<svg id="Flat" height="512" viewBox="0 0 512 512" width="512" xmlns="http://www.w3.org/2000/svg"><path d="m488 304c0 128.13-103.87 184-232 184s-232-55.87-232-184 103.87-280 232-280 232 151.87 232 280z" fill="#ffc70d"/><circle cx="248" cy="232" fill="#483d23" r="16"/><path d="m168 192a24.027 24.027 0 0 1 -24-24 8 8 0 0 1 16 0 8 8 0 0 0 16 0 8 8 0 0 1 16 0 24.027 24.027 0 0 1 -24 24z" fill="#b46d2f"/><path d="m344 192a24.027 24.027 0 0 1 -24-24 8 8 0 0 1 16 0 8 8 0 0 0 16 0 8 8 0 0 1 16 0 24.027 24.027 0 0 1 -24 24z" fill="#b46d2f"/><path d="m344 216c-12.166 0-88-16-88-16s24 32 32 48c5.06 10.119 24 48 56 48a40 40 0 0 0 40-40c0-22.091-16-40-40-40z" fill="#3db4d4"/><path d="m256 456c-122.746 0-223.161-51.321-231.389-168.276-.361 5.455-.611 10.892-.611 16.276 0 128.13 103.87 184 232 184s232-55.87 232-184c0-5.384-.25-10.821-.611-16.276-8.228 116.955-108.643 168.276-231.389 168.276z" fill="#f89f00"/></svg>