<svg id="Capa_1" enable-background="new 0 0 512 512" height="512" viewBox="0 0 512 512" width="512" xmlns="http://www.w3.org/2000/svg"><g><g><g><path d="m154.972 105.128c-23.453-45.175-33.338-91.957 0-97.254 33.616-5.341 42.13 48.627 42.13 48.627h.027s8.513-53.968 42.13-48.627c33.338 5.297 23.453 52.079 0 97.254l-42.143 24.909z" fill="#845c47"/><path d="m206.023 124.782-8.905 5.257-42.146-24.91c-23.455-45.169-33.334-91.957 0-97.254 7.204-1.148 13.249.43 18.301 3.617-15.555 12.85-7.911 53.869 7.665 93.637z" fill="#704d3b"/><path d="m385.672 390.936c0 69.045-37.118 96.459-92.487 107.084-13.123 2.529-27.28 4.105-42.215 5.067-17.064 1.105-35.142 1.413-53.854 1.413-104.136 0-188.556-9.428-188.556-113.564s84.42-249.331 188.556-249.331c104.135.001 188.556 145.195 188.556 249.331z" fill="#845c47"/><path d="m197.108 504.5c-104.137 0-188.55-9.429-188.55-113.566s84.413-249.322 188.55-249.322c-40.214 0-72.827 145.185-72.827 249.322s32.612 113.566 72.827 113.566z" fill="#704d3b"/><path d="m230.739 105.128h-67.248c-13.757 0-24.909 11.152-24.909 24.909 0 13.757 11.152 24.909 24.909 24.909h67.248c13.757 0 24.909-11.152 24.909-24.909 0-13.757-11.152-24.909-24.909-24.909z" fill="#f4dd45"/><path d="m188.008 147.65c4.509 4.509 10.741 7.294 17.613 7.294h-42.132c-6.883 0-13.104-2.785-17.613-7.294s-7.294-10.741-7.294-17.613c0-13.755 11.152-24.907 24.907-24.907h42.132c-13.755 0-24.907 11.152-24.907 24.907 0 6.872 2.785 13.104 7.294 17.613z" fill="#ffc250"/></g><g><path d="m457.463 425.916h-149.928c-15.927 0-28.838 12.911-28.838 28.838v20.908c0 15.927 12.911 28.838 28.838 28.838h149.927c15.927 0 28.838-12.911 28.838-28.838v-20.908c.001-15.926-12.911-28.838-28.837-28.838z" fill="#f4dd45"/><path d="m374.881 504.5h-67.346c-15.922 0-28.838-12.907-28.838-28.838v-20.907c0-15.931 12.916-28.838 28.838-28.838h67.346c-15.931 0-28.838 12.907-28.838 28.838v20.907c0 15.931 12.908 28.838 28.838 28.838z" fill="#ffc250"/><path d="m474.593 347.333h-149.928c-15.927 0-28.838 12.911-28.838 28.838v20.908c0 15.927 12.911 28.838 28.838 28.838h149.927c15.927 0 28.838-12.911 28.838-28.838v-20.908c0-15.927-12.911-28.838-28.837-28.838z" fill="#f4dd45"/><path d="m392.011 425.916h-67.346c-15.922 0-28.838-12.907-28.838-28.838v-20.907c0-15.931 12.916-28.838 28.838-28.838h67.346c-15.931 0-28.838 12.907-28.838 28.838v20.907c0 15.931 12.907 28.838 28.838 28.838z" fill="#ffc250"/><path d="m433.842 268.749h-149.928c-15.927 0-28.838 12.911-28.838 28.838v20.908c0 15.927 12.911 28.838 28.838 28.838h149.927c15.927 0 28.838-12.911 28.838-28.838v-20.908c.001-15.927-12.911-28.838-28.837-28.838z" fill="#f4dd45"/><path d="m351.26 347.333h-67.346c-15.922 0-28.838-12.907-28.838-28.838v-20.907c0-15.931 12.916-28.838 28.838-28.838h67.346c-15.931 0-28.838 12.907-28.838 28.838v20.907c0 15.931 12.908 28.838 28.838 28.838z" fill="#ffc250"/><circle cx="234.846" cy="400.699" fill="#f4dd45" r="103.801"/><circle cx="234.846" cy="400.699" fill="#ffc250" r="70.092"/></g></g><g><path d="m509.992 367.971c-.95-4.032-4.989-6.527-9.02-5.58-4.031.95-6.529 4.989-5.579 9.02.358 1.521.54 3.122.54 4.759v20.91c0 11.767-9.573 21.34-21.341 21.34h-17.132-112.73c.928-5.773 1.417-11.691 1.417-17.721 0-16.343-3.542-31.874-9.896-45.867l138.341-.001c2.315 0 4.579.368 6.729 1.095.796.269 1.606.397 2.402.397 3.128 0 6.047-1.973 7.104-5.101 1.326-3.924-.78-8.18-4.704-9.506-3.701-1.251-7.581-1.885-11.532-1.885h-11.361c4.365-5.995 6.949-13.364 6.949-21.33v-20.91c0-20.038-16.302-36.34-36.34-36.34h-74.512c-26.161-51.771-62.906-91.854-102.46-112.066 3.945-5.369 6.281-11.988 6.281-19.146 0-11.23-5.743-21.141-14.444-26.958 25.273-50.978 20.552-75.825 15.302-86.233-4.532-8.985-12.683-14.648-23.571-16.378-9.355-1.487-17.939.55-25.512 6.053-8.2 5.959-13.917 15.263-17.806 24.16-3.891-8.898-9.607-18.202-17.807-24.16-7.574-5.504-16.159-7.54-25.512-6.053-10.889 1.73-19.039 7.393-23.571 16.378-5.25 10.408-9.971 35.255 15.302 86.234-8.701 5.818-14.444 15.729-14.444 26.958 0 7.149 2.331 13.761 6.267 19.126-14.803 7.544-29.223 17.854-42.992 30.753-3.022 2.832-3.178 7.578-.346 10.601 1.477 1.576 3.474 2.372 5.476 2.372 1.837 0 3.679-.671 5.126-2.027 14.644-13.719 29.982-24.221 45.639-31.256 4.046 1.819 8.524 2.839 13.239 2.839h67.246c4.712 0 9.187-1.019 13.23-2.835 37.291 16.77 72.608 53.299 98.459 101.637h-58.517c-17.507 0-32.16 12.452-35.577 28.966-4.423-.537-8.923-.819-13.488-.819-61.372 0-111.301 49.929-111.301 111.3 0 40.984 22.27 76.859 55.34 96.176-46.797-.673-84.104-4.371-112.01-16.945-34.664-15.619-50.808-43.899-50.808-88.999 0-28.388 6.444-60.266 18.635-92.187 12.313-32.24 29.646-62.262 50.125-86.818 2.653-3.181 2.225-7.91-.956-10.563-3.18-2.652-7.909-2.225-10.563.957-43.887 52.622-72.242 126.657-72.242 188.613 0 51.005 19.511 84.59 59.646 102.675 33.882 15.266 79.037 18.394 136.412 18.394h37.721c16.847 0 32.827-3.769 47.153-10.498 6.742 6.66 15.902 10.498 25.532 10.498h149.929c20.038 0 36.34-16.302 36.34-36.34v-20.91c0-8.73-3.098-16.75-8.25-23.021 14.699-4.659 25.384-18.428 25.384-34.648v-20.91c-.001-2.794-.318-5.553-.942-8.2zm-366.374-344.367c2.368-4.694 6.35-7.337 12.532-8.32 25.792-4.098 33.47 41.931 33.545 42.388.575 3.646 3.743 6.331 7.435 6.331s6.833-2.686 7.408-6.331c1.242-7.873 7.113-30.229 19.203-39.014 4.296-3.121 8.987-4.223 14.342-3.374 6.183.982 10.164 3.626 12.532 8.32 6.592 13.069.43 41.299-16.071 74.257-1.249-.147-2.517-.231-3.804-.231h-67.246c-1.288 0-2.555.084-3.804.231-16.502-32.958-22.664-61.188-16.072-74.257zm19.875 123.846c-9.6 0-17.409-7.81-17.409-17.41s7.809-17.409 17.409-17.409h67.246c9.6 0 17.41 7.81 17.41 17.41s-7.81 17.409-17.41 17.409zm120.418 128.802h149.929c11.767 0 21.34 9.573 21.34 21.34v20.91c0 11.761-9.573 21.33-21.34 21.33h-105.859c-1.763-2.689-3.634-5.302-5.617-7.823.482.097.98.149 1.491.149 4.143 0 7.5-3.358 7.5-7.5v-33.23c0-4.142-3.357-7.5-7.5-7.5s-7.5 3.358-7.5 7.5v33.23c0 .121.012.239.018.358-5.978-6.435-12.704-12.163-20.042-17.045v-16.539c0-4.142-3.357-7.5-7.5-7.5s-7.5 3.358-7.5 7.5v8.152c-5.83-2.691-11.929-4.894-18.248-6.552 2.095-9.581 10.632-16.78 20.828-16.78zm-145.366 124.447c0-53.1 43.201-96.3 96.301-96.3s96.301 43.2 96.301 96.3-43.2 96.301-96.301 96.301-96.301-43.2-96.301-96.301zm340.254 74.961c0 11.767-9.573 21.34-21.34 21.34h-149.928c-4.127 0-8.102-1.21-11.491-3.381 3.545-2.342 6.948-4.88 10.195-7.601 1.348 1.992 3.629 3.302 6.216 3.302 4.143 0 7.5-3.358 7.5-7.5v-9.479c9.515-11.286 16.834-24.479 21.285-38.921h116.224c11.767 0 21.34 9.569 21.34 21.33v20.91z"/><path d="m428.922 332.158c4.143 0 7.5-3.358 7.5-7.5v-33.23c0-4.142-3.357-7.5-7.5-7.5s-7.5 3.358-7.5 7.5v33.23c0 4.142 3.357 7.5 7.5 7.5z"/><path d="m358.878 332.158c4.143 0 7.5-3.358 7.5-7.5v-33.23c0-4.142-3.357-7.5-7.5-7.5s-7.5 3.358-7.5 7.5v33.23c0 4.142 3.357 7.5 7.5 7.5z"/><path d="m393.9 332.158c4.143 0 7.5-3.358 7.5-7.5v-33.23c0-4.142-3.357-7.5-7.5-7.5s-7.5 3.358-7.5 7.5v33.23c0 4.142 3.357 7.5 7.5 7.5z"/><path d="m462.173 370.011v33.23c0 4.142 3.357 7.5 7.5 7.5s7.5-3.358 7.5-7.5v-33.23c0-4.142-3.357-7.5-7.5-7.5s-7.5 3.357-7.5 7.5z"/><path d="m357.105 370.011v33.23c0 4.142 3.357 7.5 7.5 7.5s7.5-3.358 7.5-7.5v-33.23c0-4.142-3.357-7.5-7.5-7.5s-7.5 3.357-7.5 7.5z"/><path d="m392.128 370.011v33.23c0 4.142 3.357 7.5 7.5 7.5s7.5-3.358 7.5-7.5v-33.23c0-4.142-3.357-7.5-7.5-7.5s-7.5 3.357-7.5 7.5z"/><path d="m427.15 370.011v33.23c0 4.142 3.357 7.5 7.5 7.5s7.5-3.358 7.5-7.5v-33.23c0-4.142-3.357-7.5-7.5-7.5s-7.5 3.357-7.5 7.5z"/><path d="m452.543 441.093c-4.143 0-7.5 3.358-7.5 7.5v33.23c0 4.142 3.357 7.5 7.5 7.5s7.5-3.358 7.5-7.5v-33.23c0-4.142-3.358-7.5-7.5-7.5z"/><path d="m347.476 441.093c-4.143 0-7.5 3.358-7.5 7.5v33.23c0 4.142 3.357 7.5 7.5 7.5s7.5-3.358 7.5-7.5v-33.23c0-4.142-3.357-7.5-7.5-7.5z"/><path d="m382.498 441.093c-4.143 0-7.5 3.358-7.5 7.5v33.23c0 4.142 3.357 7.5 7.5 7.5s7.5-3.358 7.5-7.5v-33.23c0-4.142-3.357-7.5-7.5-7.5z"/><path d="m417.521 441.093c-4.143 0-7.5 3.358-7.5 7.5v33.23c0 4.142 3.357 7.5 7.5 7.5s7.5-3.358 7.5-7.5v-33.23c0-4.142-3.358-7.5-7.5-7.5z"/><path d="m234.846 323.108c-42.785 0-77.592 34.807-77.592 77.591s34.807 77.592 77.592 77.592c42.784 0 77.591-34.808 77.591-77.592s-34.807-77.591-77.591-77.591zm0 140.183c-34.513 0-62.592-28.079-62.592-62.592s28.079-62.591 62.592-62.591 62.591 28.078 62.591 62.591-28.077 62.592-62.591 62.592z"/><path d="m246.328 393.066c-1.5-.437-3.027-.89-4.557-1.359v-20.704c4.078.989 6.483 2.645 6.659 2.77 3.377 2.399 8.059 1.606 10.458-1.771 2.399-3.376 1.606-8.058-1.77-10.457-1.441-1.024-6.932-4.564-15.346-5.83v-3.043c0-4.142-3.358-7.5-7.5-7.5s-7.5 3.358-7.5 7.5v3.516c-.59.122-1.185.255-1.787.405-10.098 2.505-17.644 10.25-19.224 19.732-1.356 8.131 1.975 15.877 8.692 20.216 3.192 2.062 7.094 3.956 12.32 5.929v27.644c-4.412-.378-7.736-1.433-12.918-4.225-3.646-1.965-8.195-.601-10.16 3.045-1.609 2.987-.986 6.578 1.296 8.86.504.504 1.09.945 1.749 1.3 7.841 4.225 13.304 5.633 20.032 6.054v3.574c0 2.071.839 3.946 2.197 5.303 1.357 1.357 3.232 2.197 5.303 2.197 4.142 0 7.5-3.358 7.5-7.5v-4.146c14.552-2.839 23.416-13.561 24.895-24.138 1.749-12.523-6.234-23.266-20.339-27.372zm-23.737-9.124c-2.271-1.466-2.251-3.857-2.035-5.15.415-2.49 2.274-5.481 6.216-7.056v14.477c-1.554-.733-2.971-1.489-4.181-2.271zm29.22 34.419c-.585 4.181-4.16 8.558-10.039 10.663v-21.663c.124.036.239.071.364.107 6.838 1.991 10.364 5.962 9.675 10.893z"/></g></g></svg>