<?xml version="1.0"?>
<svg xmlns="http://www.w3.org/2000/svg" width="512" height="512" viewBox="0 0 512 512"><g><rect x="72" y="72" width="368" height="368" fill="#ffda44"/><g><path d="M328,40V144H184V40a24.006,24.006,0,0,1,24-24h96A24.006,24.006,0,0,1,328,40Z" fill="#57565c"/><rect x="184" y="144" width="144" height="118.16" fill="#acabb1"/><circle cx="256" cy="88" r="24" fill="#ff9811"/><path d="M184,152V256H40V152a24.006,24.006,0,0,1,24-24h96A24.006,24.006,0,0,1,184,152Z" fill="#57565c"/><path d="M184,256v6.16L128.99,384H64a24.006,24.006,0,0,1-24-24V256Z" fill="#acabb1"/><circle cx="112" cy="200" r="24" fill="#ff9811"/><path d="M472,152V256H328V152a24.006,24.006,0,0,1,24-24h96A24.006,24.006,0,0,1,472,152Z" fill="#57565c"/><path d="M472,256V360a24.006,24.006,0,0,1-24,24H383.01L328,262.16V256Z" fill="#acabb1"/><circle cx="400" cy="200" r="24" fill="#ff9811"/><circle cx="256" cy="368" r="128" fill="#3d9ae2"/><ellipse cx="256" cy="368" rx="64" ry="128" fill="#83d8f4"/></g><g><path d="M256,120a32,32,0,1,0-32-32A32.036,32.036,0,0,0,256,120Zm0-48a16,16,0,1,1-16,16A16.019,16.019,0,0,1,256,72Z"/><path d="M208,48h8a8,8,0,0,0,0-16h-8a8,8,0,0,0,0,16Z"/><path d="M296,48h8a8,8,0,0,0,0-16h-8a8,8,0,0,0,0,16Z"/><path d="M208,184h96a8,8,0,0,0,0-16H208a8,8,0,0,0,0,16Z"/><path d="M112,232a32,32,0,1,0-32-32A32.036,32.036,0,0,0,112,232Zm0-48a16,16,0,1,1-16,16A16.019,16.019,0,0,1,112,184Z"/><path d="M64,160h8a8,8,0,0,0,0-16H64a8,8,0,0,0,0,16Z"/><path d="M152,160h8a8,8,0,0,0,0-16h-8a8,8,0,0,0,0,16Z"/><path d="M64,296h56a8,8,0,0,0,0-16H64a8,8,0,0,0,0,16Z"/><path d="M448,120V72a8,8,0,0,0-8-8H336V40A32.03,32.03,0,0,0,304,8H208a32.03,32.03,0,0,0-32,32V64H72a8,8,0,0,0-8,8v48a32.03,32.03,0,0,0-32,32V360a32.03,32.03,0,0,0,32,32v48a8,8,0,0,0,8,8h72a8.143,8.143,0,0,0,1.92-.24q1.635,2.265,3.38,4.47a7.665,7.665,0,0,0,1.23,1.52A135.749,135.749,0,0,0,255.99,504h.02a135,135,0,0,0,59.31-13.64,136.7,136.7,0,0,0,46.15-36.61,7.665,7.665,0,0,0,1.23-1.52q1.74-2.205,3.38-4.47A8.143,8.143,0,0,0,368,448h72a8,8,0,0,0,8-8V392a32.03,32.03,0,0,0,32-32V152A32.03,32.03,0,0,0,448,120ZM336,80h96v40H352a31.8,31.8,0,0,0-16,4.3ZM264,360V343.77a135.872,135.872,0,0,0,44.06-10.06A150.553,150.553,0,0,1,311.78,360Zm47.78,16a150.553,150.553,0,0,1-3.72,26.29A135.872,135.872,0,0,0,264,392.23V376ZM264,327.73V257.38a154.25,154.25,0,0,1,39.55,60.85A119.673,119.673,0,0,1,264,327.73Zm15.67-77.38a120.063,120.063,0,0,1,65.73,37.69,120.171,120.171,0,0,1-27.48,22.8A169.825,169.825,0,0,0,279.67,250.35ZM192,40a16.021,16.021,0,0,1,16-16h96a16.021,16.021,0,0,1,16,16v96H192Zm40.33,210.35a169.825,169.825,0,0,0-38.25,60.49,120.171,120.171,0,0,1-27.48-22.8A120.063,120.063,0,0,1,232.33,250.35Zm-43.1,76.19A165.963,165.963,0,0,0,184.21,360H136.27a119.348,119.348,0,0,1,20.34-59.18A136.076,136.076,0,0,0,189.23,326.54ZM80,80h96v44.3a31.8,31.8,0,0,0-16-4.3H80ZM48,152a16.021,16.021,0,0,1,16-16h96a16.021,16.021,0,0,1,16,16v96H48ZM64,376a16.021,16.021,0,0,1-16-16V264H168.47a137.51,137.51,0,0,0-17.94,18.25,7.665,7.665,0,0,0-1.23,1.52A135.322,135.322,0,0,0,120,368c0,2.69.09,5.35.24,8Zm16,56V392h42.12a135,135,0,0,0,13.91,40Zm76.61,3.18A119.348,119.348,0,0,1,136.27,376h47.94a165.963,165.963,0,0,0,5.02,33.46A136.076,136.076,0,0,0,156.61,435.18Zm9.99,12.78a120.171,120.171,0,0,1,27.48-22.8,169.825,169.825,0,0,0,38.25,60.49A120.063,120.063,0,0,1,166.6,447.96ZM248,478.62a154.25,154.25,0,0,1-39.55-60.85,119.673,119.673,0,0,1,39.55-9.5Zm0-86.39a135.872,135.872,0,0,0-44.06,10.06A150.553,150.553,0,0,1,200.22,376H248ZM248,360H200.22a150.553,150.553,0,0,1,3.72-26.29A135.872,135.872,0,0,0,248,343.77Zm0-32.27a119.673,119.673,0,0,1-39.55-9.5A154.25,154.25,0,0,1,248,257.38ZM256,232a135.213,135.213,0,0,0-64,16.03V152H320v96.03A135.213,135.213,0,0,0,256,232Zm8,246.62V408.27a119.673,119.673,0,0,1,39.55,9.5A154.25,154.25,0,0,1,264,478.62Zm15.67,7.03a169.825,169.825,0,0,0,38.25-60.49,120.171,120.171,0,0,1,27.48,22.8A120.063,120.063,0,0,1,279.67,485.65Zm75.72-50.47a136.076,136.076,0,0,0-32.62-25.72A165.963,165.963,0,0,0,327.79,376h47.94A119.348,119.348,0,0,1,355.39,435.18ZM327.79,360a165.963,165.963,0,0,0-5.02-33.46,136.076,136.076,0,0,0,32.62-25.72A119.348,119.348,0,0,1,375.73,360ZM432,432H375.97a135,135,0,0,0,13.91-40H432Zm32-72a16.021,16.021,0,0,1-16,16H391.76c.15-2.65.24-5.31.24-8a135.322,135.322,0,0,0-29.3-84.23,7.665,7.665,0,0,0-1.23-1.52A137.51,137.51,0,0,0,343.53,264H464Zm0-112H336V152a16.021,16.021,0,0,1,16-16h96a16.021,16.021,0,0,1,16,16Z"/><path d="M400,168a32,32,0,1,0,32,32A32.036,32.036,0,0,0,400,168Zm0,48a16,16,0,1,1,16-16A16.019,16.019,0,0,1,400,216Z"/><path d="M360,144h-8a8,8,0,0,0,0,16h8a8,8,0,0,0,0-16Z"/><path d="M440,144a8,8,0,0,0,0,16h8a8,8,0,0,0,0-16Z"/><path d="M448,280H392a8,8,0,0,0,0,16h56a8,8,0,0,0,0-16Z"/><path d="M208,208h96a8,8,0,0,0,0-16H208a8,8,0,0,0,0,16Z"/><path d="M112,320a8,8,0,0,0,0-16H64a8,8,0,0,0,0,16Z"/><path d="M448,304H400a8,8,0,0,0,0,16h48a8,8,0,0,0,0-16Z"/><path d="M104,328H80a8,8,0,0,0,0,16h24a8,8,0,0,0,0-16Z"/><path d="M432,328H408a8,8,0,0,0,0,16h24a8,8,0,0,0,0-16Z"/></g></g></svg>
