<svg width="512" height="512" viewBox="0 0 512 512" fill="none" xmlns="http://www.w3.org/2000/svg">
<path d="M512 289.221C512 144.692 397.385 27.5291 256 27.5291C114.615 27.5291 0 144.692 0 289.221C0 433.75 114.615 484.472 256 484.472C397.385 484.472 512 433.749 512 289.221Z" fill="#C17D4F"/>
<path d="M254.233 484.464C113.662 484.052 0 433.161 0 289.221C0 144.693 114.61 27.5291 255.995 27.5291C180.924 27.5291 120.07 144.694 120.07 289.221C120.07 432.625 179.976 483.682 254.233 484.464Z" fill="#985E33"/>
<path d="M314.541 246.299C288.899 271.93 302.704 327.324 345.375 369.995C362.971 387.591 382.73 400.283 401.675 407.309C365.093 436.783 313.356 455.162 255.994 455.162C219.092 455.162 184.519 447.559 154.818 434.28C138.345 426.925 123.376 417.817 110.324 407.31C118.545 404.261 126.921 400.14 135.203 395.02C146.01 388.344 156.662 379.958 166.624 369.996C209.295 327.325 223.1 271.931 197.458 246.3C180.934 229.776 152.057 229.631 122.181 243.054C105.708 250.441 88.926 261.969 73.762 277.133C66.849 284.046 60.699 291.298 55.342 298.695C56.589 250.976 86.361 208.604 132.175 181.139C166.275 160.679 209.275 148.481 255.995 148.481C365.475 148.481 454.494 215.454 456.658 298.715C451.321 291.297 445.161 284.055 438.238 277.132C395.567 234.461 340.183 220.657 314.541 246.299Z" fill="#F1D0A5"/>
<path d="M122.182 243.053C105.709 250.44 88.927 261.968 73.763 277.132C66.85 284.045 60.7 291.297 55.343 298.694C56.59 250.975 86.362 208.603 132.176 181.138C127.57 200.619 124.181 221.378 122.182 243.053Z" fill="#F1B986"/>
<path d="M154.819 434.279C138.346 426.924 123.377 417.816 110.325 407.309C118.546 404.26 126.922 400.139 135.204 395.019C140.53 410.255 147.144 423.277 154.819 434.279Z" fill="#F1B986"/>
<path d="M146.831 263.072C132.823 263.072 121.427 280.104 121.427 301.039C121.427 321.974 132.823 339.006 146.831 339.006C160.838 339.006 172.234 321.974 172.234 301.039C172.234 280.104 160.838 263.072 146.831 263.072Z" fill="#282528"/>
<path d="M365.159 263.072C351.151 263.072 339.755 280.104 339.755 301.039C339.755 321.974 351.151 339.006 365.159 339.006C379.166 339.006 390.562 321.974 390.562 301.039C390.562 280.104 379.166 263.072 365.159 263.072Z" fill="#282528"/>
<path d="M290.353 337.3C290.353 324.636 274.971 314.37 255.995 314.37C237.019 314.37 221.637 324.636 221.637 337.3C221.637 349.964 237.019 370.287 255.995 370.287C274.971 370.287 290.353 349.964 290.353 337.3Z" fill="#C17D4F"/>
<path d="M261.218 369.772C259.518 370.112 257.767 370.287 255.995 370.287C237.029 370.287 221.638 349.961 221.638 337.3C221.638 324.629 237.029 314.368 255.995 314.368C256.623 314.368 257.242 314.378 257.859 314.399C245.569 318.52 237.142 327.019 237.142 336.827C237.142 347.499 247.135 363.158 261.218 369.772Z" fill="#985E33"/>
<path d="M198 402.5C214.667 413.333 260.8 428.5 312 402.5" stroke="#F1B986" stroke-width="12" stroke-linecap="round" stroke-linejoin="bevel"/>
</svg>
