<svg width="361" height="350" viewBox="0 0 361 350" fill="none" xmlns="http://www.w3.org/2000/svg">
<g clip-path="url(#clip0)">
<path d="M68.2166 113.991C52.0368 138.505 43.48 167.017 43.569 196.121C43.5104 261.482 86.0677 319.74 149.681 341.381C213.295 363.021 284.067 343.317 326.145 292.25V292.19C344.166 270.514 355.724 244.469 359.569 216.879V216.759C360.518 209.918 360.997 203.023 361 196.121C360.995 143.877 333.65 95.205 288.383 66.8647C243.115 38.5245 186.108 34.3878 136.993 55.8793C130.263 58.7975 123.772 62.2067 117.574 66.0775L68.2166 113.991Z" fill="#5895DC"/>
<path d="M186.351 181.396C181.03 182.967 175.571 184.058 170.044 184.655C154.67 186.526 127.782 186.405 117.387 199.681C108.611 210.845 123.985 223.457 130.147 231.784C133.259 236.009 137.18 241.259 135.375 246.75C132.014 256.767 119.939 252.06 112.221 251.638C91.0592 250.431 97.4078 276.922 101.142 288.81C104.939 300.819 109.545 312.043 113.342 323.569C69.6836 294.968 43.5357 247.205 43.569 196.121C43.48 167.017 52.0368 138.505 68.2166 113.991C74.2769 113.084 80.1557 111.272 85.6442 108.621L136.184 157.621L161.828 156.896L162.575 132.034L150.624 120.448C174.276 120.69 201.04 136.621 204.836 154.483C208.135 170.112 198.612 177.595 186.351 181.396V181.396Z" fill="#1BD169"/>
<path d="M286.31 65.5948C263.592 82.5517 230.044 84.5431 202.533 83.7586C177.886 83.0948 153.612 76.0345 137.802 56.8448L136.993 55.8793C185.311 34.7136 241.343 38.3593 286.31 65.5948V65.5948Z" fill="#ECF0F1"/>
<path d="M361 196.121C360.997 203.023 360.518 209.918 359.569 216.759C357.157 210.407 353.802 204.43 349.61 199.017C339.882 187.435 327.669 178.045 313.821 171.5C305.51 167.833 298.12 162.459 292.161 155.75C274.173 132.94 298.759 110.733 321.041 94.1379C346.81 122.231 361.031 158.526 361 196.121V196.121Z" fill="#1BD169"/>
<path d="M327.265 256.345C325.94 266.671 325.42 277.08 325.709 287.483C325.834 289.052 326.02 290.621 326.145 292.19V292.25C313.252 307.962 297.282 321.047 279.152 330.75C272.836 329.169 267.341 325.388 263.717 320.129C259.671 313.853 258.986 306.009 255.252 299.612C250.148 290.741 240.003 285.853 230.666 281.267C221.33 276.681 211.434 271.19 207.201 261.836C203.782 253.738 205.267 244.469 211.06 237.759C220.646 227.078 239.256 221.647 252.451 216.638C267.576 210.845 284.505 206.138 300.812 209.578C310.415 211.287 318.613 217.31 322.908 225.81C327.06 235.452 328.561 245.973 327.265 256.345V256.345Z" fill="#1BD169"/>
<path d="M162.574 132.034L161.827 156.896L136.184 157.621L85.644 108.621C97.0449 103.059 106.298 94.0879 112.034 83.0344L150.624 120.448L162.574 132.034Z" fill="#BDC3C7"/>
<path d="M101.142 288.81C104.939 300.819 109.545 312.043 113.342 323.569C69.6836 294.968 43.5357 247.205 43.569 196.121C43.48 167.017 52.0368 138.505 68.2166 113.991C74.2769 113.084 80.1557 111.272 85.6442 108.621L124.732 146.517C104.31 173.04 93.3038 205.264 93.3622 238.362C93.3361 250.519 94.8199 262.635 97.7813 274.448C98.5161 279.313 99.6398 284.115 101.142 288.81V288.81Z" fill="#6CD78C"/>
<path fill-rule="evenodd" clip-rule="evenodd" d="M136.993 55.8793C185.311 34.7136 241.343 38.3593 286.311 65.5948C299.24 73.4448 310.936 83.0577 321.041 94.1379C319.486 95.2841 317.93 96.4907 316.374 97.6973L316.373 97.6983C261.146 73.9371 196.789 82.6904 150.438 120.267L112.035 83.0345C114.77 77.692 116.638 71.9724 117.574 66.0776C123.772 62.2067 130.264 58.7975 136.993 55.8793Z" fill="#77B7E5"/>
<path d="M118.259 57.3275C118.25 60.2565 118.021 63.1809 117.574 66.0775C114.702 84.45 102.792 100.32 85.6441 108.621C80.1556 111.272 74.2768 113.084 68.2165 113.991C65.2079 114.425 62.1709 114.646 59.1293 114.655C35.1882 114.672 13.5955 100.701 4.42547 79.2593C-4.74454 57.8178 0.315267 33.1318 17.2442 16.7187C34.1731 0.305639 59.635 -4.59999 81.7503 4.2906C103.866 13.1812 118.276 34.1159 118.259 57.3275Z" fill="#DF4D60"/>
<path d="M93.3621 33.1896C93.3532 36.1185 93.1244 39.0429 92.6774 41.9396C91.7414 47.8345 89.873 53.554 87.138 58.8965C78.5801 75.4991 62.2427 87.0413 43.32 89.8534C40.3114 90.2866 37.2744 90.5085 34.2328 90.5172C24.6544 90.5297 15.2152 88.2936 6.72209 83.9999C-5.24695 61.7601 -0.942869 34.5618 17.3526 16.8238C35.6481 -0.914216 63.7012 -5.08715 86.64 6.51719C91.0686 14.7515 93.375 23.9031 93.3621 33.1896Z" fill="#FF5364"/>
<path d="M24.8965 63.362C21.459 63.362 18.6724 60.6603 18.6724 57.3275C18.6998 35.6757 36.7969 18.13 59.1293 18.1034C62.5668 18.1034 65.3534 20.8051 65.3534 24.1379C65.3534 27.4706 62.5668 30.1724 59.1293 30.1724C43.6676 30.189 31.1378 42.337 31.1206 57.3275C31.1206 60.6603 28.334 63.362 24.8965 63.362Z" fill="white" fill-opacity="0.5"/>
</g>
<defs>
<clipPath id="clip0">
<rect width="361" height="350" fill="white"/>
</clipPath>
</defs>
</svg>
