<svg width="337" height="337" viewBox="0 0 337 337" fill="none" xmlns="http://www.w3.org/2000/svg">
<path d="M20.4043 106.174C20.4043 97.3373 27.5677 90.1738 36.4043 90.1738H300.596C309.432 90.1738 316.596 97.3373 316.596 106.174V113.666C316.596 122.503 309.432 129.666 300.596 129.666H36.4043C27.5677 129.666 20.4043 122.503 20.4043 113.666V106.174Z" fill="#D5DFE1"/>
<path d="M168.5 106.174C168.5 97.3373 175.663 90.1738 184.5 90.1738H300.596C309.432 90.1738 316.596 97.3373 316.596 106.174V113.666C316.596 122.503 309.432 129.666 300.596 129.666H184.5C175.663 129.666 168.5 122.503 168.5 113.666V106.174Z" fill="#80A0A7"/>
<path d="M20.4043 224.65C20.4043 215.814 27.5677 208.65 36.4043 208.65H300.596C309.432 208.65 316.596 215.814 316.596 224.65V232.143C316.596 240.979 309.432 248.143 300.596 248.143H36.4043C27.5677 248.143 20.4043 240.979 20.4043 232.143V224.65Z" fill="#D5DFE1"/>
<path d="M168.5 224.65C168.5 215.814 175.663 208.65 184.5 208.65H300.596C309.432 208.65 316.596 215.814 316.596 224.65V232.143C316.596 240.979 309.432 248.143 300.596 248.143H184.5C175.663 248.143 168.5 240.979 168.5 232.143V224.65Z" fill="#80A0A7"/>
<path d="M16 0C7.16344 0 0 7.16344 0 16V84.0469C0 92.8834 7.16344 100.047 16 100.047H321C329.837 100.047 337 92.8834 337 84.0469V16C337 7.16344 329.837 0 321 0H16Z" fill="#80A0A7"/>
<path d="M168.5 0H321C329.837 0 337 7.16344 337 16V84.0469C337 92.8834 329.837 100.047 321 100.047H168.5V0Z" fill="#D5DFE1"/>
<path d="M40.1504 50.6816C40.1504 45.2289 44.5707 40.8086 50.0234 40.8086C55.4762 40.8086 59.8965 45.2289 59.8965 50.6816C59.8965 56.1344 55.4762 60.5547 50.0234 60.5547C44.5707 60.5547 40.1504 56.1344 40.1504 50.6816Z" fill="#9BFCFF"/>
<path d="M79.6426 50.6816C79.6426 45.2289 84.0629 40.8086 89.5156 40.8086C94.9684 40.8086 99.3887 45.2289 99.3887 50.6816C99.3887 56.1344 94.9684 60.5547 89.5156 60.5547C84.0629 60.5547 79.6426 56.1344 79.6426 50.6816Z" fill="#9BFCFF"/>
<path d="M119.135 50.6816C119.135 45.2289 123.555 40.8086 129.008 40.8086C134.461 40.8086 138.881 45.2289 138.881 50.6816C138.881 56.1344 134.461 60.5547 129.008 60.5547C123.555 60.5547 119.135 56.1344 119.135 50.6816Z" fill="#9BFCFF"/>
<path d="M198.119 50.6816C198.119 45.2289 202.539 40.8086 207.992 40.8086H286.977C292.429 40.8086 296.85 45.2289 296.85 50.6816C296.85 56.1344 292.429 60.5547 286.977 60.5547H207.992C202.539 60.5547 198.119 56.1344 198.119 50.6816Z" fill="#80A0A7"/>
<path d="M16 119.793C7.16344 119.793 0 126.956 0 135.793V202.523C0 211.36 7.16344 218.523 16 218.523H321C329.837 218.523 337 211.36 337 202.523V135.793C337 126.956 329.837 119.793 321 119.793H16Z" fill="#80A0A7"/>
<path d="M168.5 119.793H321C329.837 119.793 337 126.956 337 135.793V202.523C337 211.36 329.837 218.523 321 218.523H168.5V119.793Z" fill="#D5DFE1"/>
<path d="M40.1504 169.158C40.1504 163.705 44.5707 159.285 50.0234 159.285C55.4762 159.285 59.8965 163.705 59.8965 169.158C59.8965 174.611 55.4762 179.031 50.0234 179.031C44.5707 179.031 40.1504 174.611 40.1504 169.158Z" fill="#9BFCFF"/>
<path d="M79.6426 169.158C79.6426 163.705 84.0629 159.285 89.5156 159.285C94.9684 159.285 99.3887 163.705 99.3887 169.158C99.3887 174.611 94.9684 179.031 89.5156 179.031C84.0629 179.031 79.6426 174.611 79.6426 169.158Z" fill="#9BFCFF"/>
<path d="M119.135 169.158C119.135 163.705 123.555 159.285 129.008 159.285C134.461 159.285 138.881 163.705 138.881 169.158C138.881 174.611 134.461 179.031 129.008 179.031C123.555 179.031 119.135 174.611 119.135 169.158Z" fill="#9BFCFF"/>
<path d="M198.119 169.158C198.119 163.705 202.539 159.285 207.992 159.285H286.977C292.429 159.285 296.85 163.705 296.85 169.158C296.85 174.611 292.429 179.031 286.977 179.031H207.992C202.539 179.031 198.119 174.611 198.119 169.158Z" fill="#80A0A7"/>
<path d="M16 238.27C7.16344 238.27 0 245.433 0 254.27V321C0 329.837 7.16344 337 16 337H321C329.837 337 337 329.837 337 321V254.27C337 245.433 329.837 238.27 321 238.27H16Z" fill="#80A0A7"/>
<path d="M168.5 238.27H321C329.837 238.27 337 245.433 337 254.27V321C337 329.837 329.837 337 321 337H168.5V238.27Z" fill="#D5DFE1"/>
<path d="M40.1504 287.635C40.1504 282.182 44.5707 277.762 50.0234 277.762C55.4762 277.762 59.8965 282.182 59.8965 287.635C59.8965 293.087 55.4762 297.508 50.0234 297.508C44.5707 297.508 40.1504 293.087 40.1504 287.635Z" fill="#9BFCFF"/>
<path d="M79.6426 287.635C79.6426 282.182 84.0629 277.762 89.5156 277.762C94.9684 277.762 99.3887 282.182 99.3887 287.635C99.3887 293.087 94.9684 297.508 89.5156 297.508C84.0629 297.508 79.6426 293.087 79.6426 287.635Z" fill="#9BFCFF"/>
<path d="M119.135 287.635C119.135 282.182 123.555 277.762 129.008 277.762C134.461 277.762 138.881 282.182 138.881 287.635C138.881 293.087 134.461 297.508 129.008 297.508C123.555 297.508 119.135 293.087 119.135 287.635Z" fill="#9BFCFF"/>
<path d="M198.119 287.635C198.119 282.182 202.539 277.762 207.992 277.762H286.977C292.429 277.762 296.85 282.182 296.85 287.635C296.85 293.087 292.429 297.508 286.977 297.508H207.992C202.539 297.508 198.119 293.087 198.119 287.635Z" fill="#80A0A7"/>
</svg>
