<svg width="406" height="406" viewBox="0 0 406 406" fill="none" xmlns="http://www.w3.org/2000/svg">
<g clip-path="url(#clip0)">
<path d="M203 0L27.197 101.5V304.5L203 406L378.803 304.5V101.5L203 0ZM214.917 120.297H322.411L214.916 182.359V120.297H214.917ZM191.083 182.359L83.5883 120.297H191.083V182.359ZM179.564 203.23L125.493 234.277L71.568 140.877L179.564 203.23ZM191.083 224.098V347.878L137.411 254.917L191.083 224.098ZM214.917 223.64L268.664 254.671L214.917 347.765V223.64ZM226.834 203L334.329 140.938L280.581 234.031L226.834 203ZM214.917 96.4627V34.4012L322.412 96.4635H214.917V96.4627ZM191.083 96.4627H83.5883L191.083 34.4005V96.4627ZM51.0311 152.975L104.825 246.146L51.0311 277.035V152.975ZM116.741 266.786L170.343 359.625L62.9965 297.647L116.741 266.786ZM289.305 266.588L343.052 297.62L235.557 359.682L289.305 266.588ZM301.222 245.947L354.969 152.854V276.978L301.222 245.947Z" fill="#4578CB"/>
<path d="M203 0V406L378.803 304.5V101.5L203 0ZM214.917 34.4012L322.412 96.4635H214.917V34.4012ZM214.917 120.297H322.411L214.916 182.359V120.297H214.917ZM334.329 140.938L280.581 234.031L226.834 203L334.329 140.938ZM214.917 223.64L268.664 254.671L214.917 347.765V223.64ZM235.557 359.682L289.305 266.588L343.052 297.62L235.557 359.682ZM354.969 276.978L301.222 245.947L354.969 152.854V276.978Z" fill="#71AFE8"/>
</g>
<defs>
<clipPath id="clip0">
<rect width="406" height="406" fill="white"/>
</clipPath>
</defs>
</svg>
