<?xml version="1.0" encoding="iso-8859-1"?>
<!-- Generator: Adobe Illustrator 19.0.0, SVG Export Plug-In . SVG Version: 6.00 Build 0)  -->
<svg version="1.1" id="Capa_1" xmlns="http://www.w3.org/2000/svg" xmlns:xlink="http://www.w3.org/1999/xlink" x="0px" y="0px"
	 viewBox="0 0 512.076 512.076" style="enable-background:new 0 0 512.076 512.076;" xml:space="preserve">
<g>
	<path style="fill:#EBBA16;" d="M177.379,274.489l-24.09-24.09l63.612-63.612c6.656-6.656,17.443-6.656,24.09,0l0,0
		c6.656,6.656,6.656,17.443,0,24.09L177.379,274.489z"/>
	<path style="fill:#EBBA16;" d="M262.9,357.627l-24.09-24.09l62.42-62.42c6.656-6.656,17.443-6.656,24.09,0l0,0
		c6.656,6.656,6.656,17.443,0,24.09L262.9,357.627z"/>
</g>
<rect x="443.204" y="-4.407" transform="matrix(-0.7071 -0.7071 0.7071 -0.7071 749.0724 413.818)" style="fill:#6C797A;" width="34.074" height="112.356"/>
<path style="fill:#AFB6BB;" d="M423.774,148.572l-60.239-60.239l21.583-21.583c6.894-6.894,18.07-6.894,24.964,0l35.275,35.275
	c6.894,6.894,6.894,18.07,0,24.964L423.774,148.572z"/>
<path style="fill:#E7ECED;" d="M385.56,283.166L228.941,126.547l52.692-52.692c24.126-24.126,63.241-24.126,87.367,0l69.244,69.244
	c24.126,24.126,24.126,63.241,0,87.367L385.56,283.166z"/>
<path style="fill:#AFB6BB;" d="M367.489,129.354c-2.26,0-4.52-0.865-6.241-2.586l-24.099-24.108c-6.515-6.515-17.117-6.515-23.64,0
	l-24.099,24.108c-3.443,3.452-9.031,3.452-12.482,0c-3.452-3.452-3.452-9.031,0-12.482l24.099-24.108
	c13.4-13.4,35.196-13.4,48.605,0l24.099,24.108c3.452,3.452,3.452,9.031,0,12.482C372,128.498,369.741,129.354,367.489,129.354z"/>
<rect x="35.394" y="402.688" transform="matrix(0.7071 0.7071 -0.7071 0.7071 340.42 97.571)" style="fill:#6C797A;" width="34.074" height="114.042"/>
<path style="fill:#AFB6BB;" d="M88.326,363.541l60.239,60.239l-21.583,21.583c-6.894,6.894-18.07,6.894-24.964,0l-35.275-35.275
	c-6.894-6.894-6.894-18.07,0-24.964L88.326,363.541z"/>
<path style="fill:#E7ECED;" d="M138.59,216.906l156.61,156.61l-64.742,64.742c-24.126,24.126-63.241,24.126-87.367,0l-69.244-69.244
	c-24.126-24.126-24.126-63.241,0-87.367L138.59,216.906z"/>
<rect x="92.085" y="309.296" transform="matrix(-0.7071 -0.7071 0.7071 -0.7071 45.2778 705.4949)" style="fill:#366DB6;" width="153.334" height="68.148"/>
<path style="fill:#FFFFFF;" d="M186.78,370.295c-2.26,0-4.52-0.865-6.241-2.586l-36.14-36.149c-3.452-3.452-3.452-9.031,0-12.482
	c3.452-3.452,9.031-3.452,12.482,0l36.14,36.149c3.452,3.452,3.452,9.031,0,12.482C191.3,369.438,189.04,370.295,186.78,370.295z"/>
<g>
</g>
<g>
</g>
<g>
</g>
<g>
</g>
<g>
</g>
<g>
</g>
<g>
</g>
<g>
</g>
<g>
</g>
<g>
</g>
<g>
</g>
<g>
</g>
<g>
</g>
<g>
</g>
<g>
</g>
</svg>
