<?xml version="1.0" encoding="iso-8859-1"?>
<!-- Generator: Adobe Illustrator 19.0.0, SVG Export Plug-In . SVG Version: 6.00 Build 0)  -->
<svg version="1.1" id="Capa_1" xmlns="http://www.w3.org/2000/svg" xmlns:xlink="http://www.w3.org/1999/xlink" x="0px" y="0px"
	 viewBox="0 0 496.485 496.485" style="enable-background:new 0 0 496.485 496.485;" xml:space="preserve">
<circle style="fill:#FDBF5E;" cx="248.242" cy="248.242" r="248.242"/>
<g>
	<rect x="198.594" y="15.515" style="fill:#193651;" width="15.515" height="15.515"/>
	<rect x="240.485" y="15.515" style="fill:#193651;" width="15.515" height="15.515"/>
	<rect x="282.376" y="15.515" style="fill:#193651;" width="15.515" height="15.515"/>
</g>
<g>
	<rect x="198.594" y="465.455" style="fill:#193651;" width="15.515" height="15.515"/>
	<rect x="240.485" y="465.455" style="fill:#193651;" width="15.515" height="15.515"/>
	<rect x="282.376" y="465.455" style="fill:#193651;" width="15.515" height="15.515"/>
	<rect x="465.455" y="198.594" style="fill:#193651;" width="15.515" height="15.515"/>
	<rect x="465.455" y="240.485" style="fill:#193651;" width="15.515" height="15.515"/>
	<rect x="465.455" y="282.376" style="fill:#193651;" width="15.515" height="15.515"/>
	<rect x="15.515" y="198.594" style="fill:#193651;" width="15.515" height="15.515"/>
</g>
<g>
	<rect x="15.515" y="240.485" style="fill:#193651;" width="15.515" height="15.515"/>
	<rect x="15.515" y="282.376" style="fill:#193651;" width="15.515" height="15.515"/>
</g>
<circle style="fill:#FFFFFF;" cx="248.242" cy="246.691" r="187.733"/>
<path style="fill:#193651;" d="M248.242,442.958c-107.83,0-195.491-87.661-195.491-195.491
	c0-108.606,87.661-196.267,195.491-196.267s195.491,87.661,195.491,195.491S356.073,442.958,248.242,442.958z M248.242,66.715
	c-99.297,0-179.976,80.679-179.976,179.976s80.679,179.976,179.976,179.976s179.976-80.679,179.976-179.976
	S347.539,66.715,248.242,66.715z"/>
<ellipse style="fill:#2EA2DB;" cx="248.242" cy="246.695" rx="155.152" ry="155.152"/>
<g>
	<path style="fill:#E1E6E9;" d="M245.915,289.358c0,0,4.655-7.758-20.945-7.758c0,0-6.206,3.879-7.758-14.739h-7.758
		c0,0-5.43-13.964-12.412-8.533c0,0-4.655,4.655-10.861-4.655c0,0-17.067-4.655-17.067,19.394c0,0-21.721,14.739,4.655,33.358
		l12.412,9.309v23.273c0,0,6.206,0.776,3.103,10.861c0,0,8.533,7.758,1.552,22.497c0,0,8.533,23.273,23.273,15.515l-4.655-4.655
		l2.327-9.309H204.8l4.655-10.085l-4.655-3.103c0,0,26.376-1.552,26.376-24.048c0,0-11.636-10.861,7.758-9.309
		c0,0,9.309,0,8.533-20.945c0,0,7.758-7.758,6.982-11.636C252.121,289.358,245.915,289.358,245.915,289.358z"/>
	<path style="fill:#E1E6E9;" d="M389.43,182.303c-13.964,1.552-9.309,20.945-9.309,20.945c-6.206,12.412-22.497-6.206-22.497-6.206
		c-6.206,13.188-20.945-0.776-20.945-0.776c-35.685-17.842-41.891,15.515-41.891,15.515c-17.842,17.842,0,41.891,0,41.891
		c10.861,14.739,26.376-4.655,26.376-4.655c10.861,13.188,17.842,9.309,17.842,9.309s0,0-1.552,7.758
		c-1.552,7.758,11.636,16.291,11.636,20.945c0,3.879-17.842,13.964-4.655,25.6c13.188,11.636,7.758,20.17,7.758,20.17
		s10.085,8.533,15.515,13.188c22.497-27.152,35.685-61.285,35.685-99.297C403.394,223.418,397.964,201.697,389.43,182.303z"/>
	<path style="fill:#E1E6E9;" d="M131.879,217.988c0,0,0,0,7.758,16.291s18.618-3.103,15.515-10.861
		c-3.103-7.758,3.879-20.17,22.497-16.291c18.618,4.655,10.085-3.103,26.376-24.048s26.376-4.655,31.03-17.067
		c4.655-12.412,8.533-35.685-10.085-20.945c-18.618,13.964-17.067,7.758,0-13.964s-11.636,3.879-40.339,3.103
		c-13.188,0-17.067-8.533-18.618-17.842c-14.739,9.309-27.927,21.721-39.564,35.685c-2.327,8.533-5.43,19.394-9.309,35.685
		C110.933,213.333,131.879,217.988,131.879,217.988z"/>
</g>
<path style="fill:#F16051;" d="M309.527,225.745c0,33.358-61.285,103.952-61.285,103.952s-61.285-69.818-61.285-103.952
	s27.152-61.285,61.285-61.285S309.527,191.612,309.527,225.745z"/>
<path style="fill:#193651;" d="M248.242,336.679c-2.327,0-4.655-0.776-6.206-2.327c-6.206-7.758-62.836-72.921-62.836-108.606
	c0-38.012,31.03-69.042,69.042-69.042s69.042,31.03,69.042,69.042c0,35.685-56.63,101.624-62.836,108.606
	C252.897,335.903,250.57,336.679,248.242,336.679z M248.242,172.218c-29.479,0-53.527,24.048-53.527,53.527
	c0,22.497,34.133,69.042,53.527,91.539c18.618-23.273,53.527-69.042,53.527-91.539C301.77,196.267,277.721,172.218,248.242,172.218z
	"/>
<circle style="fill:#FFFFFF;" cx="248.242" cy="222.642" r="25.6"/>
<path style="fill:#F16051;" d="M160.582,112.485c0,20.17-36.461,61.285-36.461,61.285s-36.461-41.891-36.461-61.285
	c0-20.17,16.291-36.461,36.461-36.461C144.291,76.8,160.582,93.091,160.582,112.485z"/>
<path style="fill:#193651;" d="M124.121,182.303L124.121,182.303c-2.327,0-4.655-0.776-6.206-2.327
	c-6.206-6.982-38.012-44.994-38.012-66.715c0-24.048,19.394-44.218,44.218-44.218s44.218,19.394,44.218,44.218
	c0,21.721-31.806,58.958-38.012,66.715C128.776,180.752,126.448,182.303,124.121,182.303z M124.121,84.558
	c-15.515,0-28.703,12.412-28.703,28.703c0,10.861,15.515,33.358,28.703,49.648c12.412-15.515,28.703-38.788,28.703-49.648
	C152.824,96.97,139.636,84.558,124.121,84.558z"/>
<circle style="fill:#FFFFFF;" cx="124.121" cy="111.709" r="15.515"/>
<path style="fill:#F16051;" d="M408.048,112.485c0,20.17-36.461,61.285-36.461,61.285s-36.461-41.891-36.461-61.285
	c0-20.17,16.291-36.461,36.461-36.461C391.758,76.8,408.048,93.091,408.048,112.485z"/>
<path style="fill:#193651;" d="M372.364,182.303c-2.327,0-4.655-0.776-6.206-2.327c-6.206-6.982-38.012-44.994-38.012-66.715
	c0-24.048,19.394-44.218,44.218-44.218c24.048,0,44.218,19.394,44.218,44.218c0,21.721-31.806,58.958-38.012,66.715
	C376.242,180.752,374.691,182.303,372.364,182.303z M372.364,84.558c-15.515,0-28.703,12.412-28.703,28.703
	c0,10.861,15.515,33.358,28.703,49.648c12.412-15.515,28.703-38.788,28.703-49.648C400.291,96.97,387.879,84.558,372.364,84.558z"/>
<circle style="fill:#FFFFFF;" cx="372.364" cy="111.709" r="15.515"/>
<path style="fill:#F16051;" d="M160.582,377.794c0,20.17-36.461,61.285-36.461,61.285s-36.461-41.891-36.461-61.285
	c0-20.17,16.291-36.461,36.461-36.461C144.291,342.109,160.582,357.624,160.582,377.794z"/>
<path style="fill:#193651;" d="M124.121,446.836L124.121,446.836c-2.327,0-4.655-0.776-6.206-2.327
	c-6.206-6.982-38.012-44.994-38.012-66.715c0-24.048,19.394-44.218,44.218-44.218s44.218,19.394,44.218,44.218
	c0,21.721-31.806,58.958-38.012,66.715C128.776,446.061,126.448,446.836,124.121,446.836z M124.121,349.867
	c-15.515,0-28.703,12.412-28.703,28.703c0,10.861,15.515,33.358,28.703,49.648c12.412-15.515,28.703-38.788,28.703-49.648
	C152.824,362.279,139.636,349.867,124.121,349.867z"/>
<circle style="fill:#FFFFFF;" cx="124.121" cy="376.242" r="15.515"/>
<path style="fill:#F16051;" d="M408.048,377.794c0,20.17-36.461,61.285-36.461,61.285s-36.461-41.891-36.461-61.285
	c0-20.17,16.291-36.461,36.461-36.461C391.758,342.109,408.048,357.624,408.048,377.794z"/>
<path style="fill:#193651;" d="M372.364,446.836c-2.327,0-4.655-0.776-6.206-2.327c-6.206-6.982-38.012-44.994-38.012-66.715
	c0-24.048,19.394-44.218,44.218-44.218c24.048,0,44.218,19.394,44.218,44.218c0,21.721-31.806,58.958-38.012,66.715
	C376.242,446.061,374.691,446.836,372.364,446.836z M372.364,349.867c-15.515,0-28.703,12.412-28.703,28.703
	c0,10.861,15.515,33.358,28.703,49.648c12.412-15.515,28.703-38.788,28.703-49.648C400.291,362.279,387.879,349.867,372.364,349.867
	z"/>
<circle style="fill:#FFFFFF;" cx="372.364" cy="376.242" r="15.515"/>
<g>
</g>
<g>
</g>
<g>
</g>
<g>
</g>
<g>
</g>
<g>
</g>
<g>
</g>
<g>
</g>
<g>
</g>
<g>
</g>
<g>
</g>
<g>
</g>
<g>
</g>
<g>
</g>
<g>
</g>
</svg>
